<svg width="60" height="25" viewBox="0 0 60 25" fill="none" xmlns="http://www.w3.org/2000/svg">
<path d="M1 5.5C1 3.01472 3.01472 1 5.5 1H54.2769C56.7622 1 58.7769 3.01472 58.7769 5.5V19.2769C58.7769 21.7622 56.7622 23.7769 54.2769 23.7769H5.5C3.01472 23.7769 1 21.7622 1 19.2769V5.5Z" fill="#DE002D"/>
<path d="M5.5 0.5C2.73858 0.5 0.5 2.73857 0.5 5.5V19.2769C0.5 22.0383 2.73858 24.2769 5.5 24.2769H54.2769C57.0383 24.2769 59.2769 22.0383 59.2769 19.2769V5.5C59.2769 2.73858 57.0383 0.5 54.2769 0.5H5.5Z" stroke="#DE002D" stroke-opacity="0.3"/>
<path d="M10.388 17L9.8 14.876H7.316L6.74 17H5.156L7.508 8.624H9.692L12.056 17H10.388ZM8.612 10.172H8.516L7.592 13.592H9.536L8.612 10.172ZM14.4633 10.988H14.3433V17H12.9993V8.624H14.9313L17.1273 14.636H17.2473V8.624H18.5913V17H16.6593L14.4633 10.988ZM24.4426 15.836H24.3466C24.2746 16.004 24.1866 16.168 24.0826 16.328C23.9786 16.488 23.8506 16.628 23.6986 16.748C23.5466 16.868 23.3666 16.964 23.1586 17.036C22.9586 17.108 22.7266 17.144 22.4626 17.144C21.6146 17.144 20.9706 16.772 20.5306 16.028C20.0986 15.276 19.8826 14.224 19.8826 12.872C19.8826 11.448 20.1386 10.36 20.6506 9.608C21.1626 8.856 21.9506 8.48 23.0146 8.48C23.4306 8.48 23.7946 8.536 24.1066 8.648C24.4266 8.76 24.6986 8.916 24.9226 9.116C25.1546 9.316 25.3426 9.556 25.4866 9.836C25.6386 10.108 25.7586 10.404 25.8466 10.724L24.4066 11.132C24.3506 10.956 24.2866 10.784 24.2146 10.616C24.1506 10.448 24.0626 10.304 23.9506 10.184C23.8466 10.056 23.7186 9.956 23.5666 9.884C23.4146 9.804 23.2266 9.764 23.0026 9.764C22.4826 9.764 22.1106 9.972 21.8866 10.388C21.6626 10.804 21.5506 11.372 21.5506 12.092V13.436C21.5506 13.796 21.5746 14.128 21.6226 14.432C21.6786 14.728 21.7666 14.984 21.8866 15.2C22.0066 15.416 22.1626 15.584 22.3546 15.704C22.5466 15.816 22.7866 15.872 23.0746 15.872C23.5226 15.872 23.8626 15.74 24.0946 15.476C24.3266 15.204 24.4426 14.86 24.4426 14.444V13.76H22.9186V12.62H25.8466V17H24.4426V15.836ZM28.9019 8.624V13.844C28.9019 14.156 28.9099 14.436 28.9259 14.684C28.9499 14.932 29.0019 15.144 29.0819 15.32C29.1699 15.488 29.2979 15.62 29.4659 15.716C29.6419 15.812 29.8819 15.86 30.1859 15.86C30.4899 15.86 30.7259 15.812 30.8939 15.716C31.0699 15.62 31.1979 15.488 31.2779 15.32C31.3659 15.144 31.4179 14.932 31.4339 14.684C31.4579 14.436 31.4699 14.156 31.4699 13.844V8.624H33.0419V13.604C33.0419 14.196 33.0059 14.712 32.9339 15.152C32.8619 15.592 32.7219 15.96 32.5139 16.256C32.3059 16.552 32.0139 16.776 31.6379 16.928C31.2699 17.072 30.7859 17.144 30.1859 17.144C29.5859 17.144 29.0979 17.072 28.7219 16.928C28.3539 16.776 28.0659 16.552 27.8579 16.256C27.6499 15.96 27.5099 15.592 27.4379 15.152C27.3659 14.712 27.3299 14.196 27.3299 13.604V8.624H28.9019ZM34.9813 17V8.624H36.5533V15.704H40.2613V17H34.9813ZM46.3646 17L45.7766 14.876H43.2926L42.7166 17H41.1326L43.4846 8.624H45.6686L48.0326 17H46.3646ZM44.5886 10.172H44.4926L43.5686 13.592H45.5126L44.5886 10.172ZM50.7039 17H49.1319V8.624H52.3119C53.1279 8.624 53.7519 8.856 54.1839 9.32C54.6159 9.784 54.8319 10.416 54.8319 11.216C54.8319 11.832 54.6879 12.352 54.3999 12.776C54.1199 13.192 53.7159 13.456 53.1879 13.568L54.9759 17H53.2479L51.6519 13.748H50.7039V17ZM51.9879 12.524C52.4119 12.524 52.7159 12.44 52.8999 12.272C53.0839 12.096 53.1759 11.82 53.1759 11.444V10.988C53.1759 10.612 53.0839 10.34 52.8999 10.172C52.7159 9.996 52.4119 9.908 51.9879 9.908H50.7039V12.524H51.9879Z" fill="white"/>
</svg>
