<svg width="46" height="25" viewBox="0 0 46 25" fill="none" xmlns="http://www.w3.org/2000/svg">
<path d="M1 5.5C1 3.01472 3.01472 1 5.5 1H40.5C42.9853 1 45 3.01472 45 5.5V19.5C45 21.9853 42.9853 24 40.5 24H5.5C3.01472 24 1 21.9853 1 19.5V5.5Z" fill="#4700DE"/>
<path d="M40.5 0.5H5.5C2.73858 0.5 0.5 2.73858 0.5 5.5V19.5C0.5 22.2614 2.73858 24.5 5.5 24.5H40.5C43.2614 24.5 45.5 22.2614 45.5 19.5V5.5C45.5 2.73858 43.2614 0.5 40.5 0.5Z" stroke="#4700DE" stroke-opacity="0.3"/>
<path d="M10.388 17L9.8 14.876H7.316L6.74 17H5.156L7.508 8.624H9.692L12.056 17H10.388ZM8.612 10.172H8.516L7.592 13.592H9.536L8.612 10.172ZM15.6993 17.144C14.9793 17.144 14.3633 17.02 13.8513 16.772C13.3473 16.524 12.9353 16.196 12.6153 15.788L13.5633 14.804C13.8753 15.164 14.2113 15.432 14.5713 15.608C14.9393 15.776 15.3313 15.86 15.7473 15.86C16.2273 15.86 16.5953 15.752 16.8513 15.536C17.1073 15.32 17.2353 15.008 17.2353 14.6C17.2353 14.264 17.1393 14.012 16.9473 13.844C16.7553 13.668 16.4313 13.544 15.9753 13.472L15.0873 13.328C14.3113 13.192 13.7593 12.912 13.4313 12.488C13.1033 12.056 12.9393 11.548 12.9393 10.964C12.9393 10.164 13.1993 9.552 13.7193 9.128C14.2393 8.696 14.9593 8.48 15.8793 8.48C16.5353 8.48 17.0993 8.584 17.5713 8.792C18.0513 9 18.4353 9.284 18.7233 9.644L17.7993 10.628C17.5753 10.364 17.3073 10.156 16.9953 10.004C16.6833 9.844 16.3153 9.764 15.8913 9.764C14.9793 9.764 14.5233 10.14 14.5233 10.892C14.5233 11.212 14.6193 11.456 14.8113 11.624C15.0033 11.792 15.3313 11.916 15.7953 11.996L16.6713 12.152C17.3993 12.288 17.9393 12.556 18.2913 12.956C18.6433 13.356 18.8193 13.868 18.8193 14.492C18.8193 14.884 18.7513 15.244 18.6153 15.572C18.4793 15.892 18.2793 16.172 18.0153 16.412C17.7513 16.644 17.4233 16.824 17.0313 16.952C16.6473 17.08 16.2033 17.144 15.6993 17.144ZM23.7706 9.92V17H22.2106V9.92H19.6906V8.624H26.2906V9.92H23.7706ZM29.1179 17H27.5459V8.624H30.7259C31.5419 8.624 32.1659 8.856 32.5979 9.32C33.0299 9.784 33.2459 10.416 33.2459 11.216C33.2459 11.832 33.1019 12.352 32.8139 12.776C32.5339 13.192 32.1299 13.456 31.6019 13.568L33.3899 17H31.6619L30.0659 13.748H29.1179V17ZM30.4019 12.524C30.8259 12.524 31.1299 12.44 31.3139 12.272C31.4979 12.096 31.5899 11.82 31.5899 11.444V10.988C31.5899 10.612 31.4979 10.34 31.3139 10.172C31.1299 9.996 30.8259 9.908 30.4019 9.908H29.1179V12.524H30.4019ZM37.3813 17.144C36.8373 17.144 36.3653 17.048 35.9653 16.856C35.5653 16.656 35.2333 16.372 34.9693 16.004C34.7133 15.636 34.5213 15.184 34.3933 14.648C34.2733 14.112 34.2133 13.5 34.2133 12.812C34.2133 12.132 34.2733 11.524 34.3933 10.988C34.5213 10.444 34.7133 9.988 34.9693 9.62C35.2333 9.252 35.5653 8.972 35.9653 8.78C36.3653 8.58 36.8373 8.48 37.3813 8.48C38.4693 8.48 39.2693 8.86 39.7812 9.62C40.2933 10.38 40.5493 11.444 40.5493 12.812C40.5493 14.18 40.2933 15.244 39.7812 16.004C39.2693 16.764 38.4693 17.144 37.3813 17.144ZM37.3813 15.86C37.6613 15.86 37.8973 15.808 38.0893 15.704C38.2813 15.592 38.4333 15.436 38.5453 15.236C38.6653 15.036 38.7493 14.792 38.7973 14.504C38.8533 14.208 38.8813 13.88 38.8813 13.52V12.092C38.8813 11.372 38.7693 10.804 38.5453 10.388C38.3293 9.972 37.9413 9.764 37.3813 9.764C36.8213 9.764 36.4293 9.972 36.2053 10.388C35.9893 10.804 35.8813 11.372 35.8813 12.092V13.532C35.8813 14.252 35.9893 14.82 36.2053 15.236C36.4293 15.652 36.8213 15.86 37.3813 15.86Z" fill="white"/>
</svg>
