<svg width="31" height="25" viewBox="0 0 31 25" fill="none" xmlns="http://www.w3.org/2000/svg">
<path d="M1 5.5C1 3.01472 3.01472 1 5.5 1H25.5C27.9853 1 30 3.01472 30 5.5V19.5C30 21.9853 27.9853 24 25.5 24H5.5C3.01472 24 1 21.9853 1 19.5V5.5Z" fill="#13BFF4"/>
<path d="M5.5 0.5C2.73858 0.5 0.5 2.73858 0.5 5.5V19.5C0.5 22.2614 2.73858 24.5 5.5 24.5H25.5C28.2614 24.5 30.5 22.2614 30.5 19.5V5.5C30.5 2.73858 28.2614 0.5 25.5 0.5H5.5Z" stroke="#13BFF4" stroke-opacity="0.3"/>
<path d="M8.816 17.144C7.72 17.144 6.908 16.768 6.38 16.016C5.86 15.264 5.6 14.196 5.6 12.812C5.6 11.436 5.86 10.372 6.38 9.62C6.908 8.86 7.72 8.48 8.816 8.48C9.232 8.48 9.596 8.536 9.908 8.648C10.228 8.76 10.504 8.916 10.736 9.116C10.968 9.308 11.16 9.544 11.312 9.824C11.464 10.096 11.584 10.396 11.672 10.724L10.232 11.132C10.176 10.94 10.112 10.76 10.04 10.592C9.968 10.424 9.876 10.28 9.764 10.16C9.66 10.032 9.528 9.936 9.368 9.872C9.208 9.8 9.016 9.764 8.792 9.764C8.248 9.764 7.856 9.972 7.616 10.388C7.384 10.804 7.268 11.372 7.268 12.092V13.532C7.268 14.252 7.384 14.82 7.616 15.236C7.856 15.652 8.248 15.86 8.792 15.86C9.016 15.86 9.208 15.828 9.368 15.764C9.528 15.692 9.66 15.596 9.764 15.476C9.876 15.348 9.968 15.2 10.04 15.032C10.112 14.864 10.176 14.684 10.232 14.492L11.672 14.9C11.584 15.228 11.464 15.532 11.312 15.812C11.16 16.084 10.968 16.32 10.736 16.52C10.504 16.712 10.228 16.864 9.908 16.976C9.596 17.088 9.232 17.144 8.816 17.144ZM15.6993 17.144C14.9793 17.144 14.3633 17.02 13.8513 16.772C13.3473 16.524 12.9353 16.196 12.6153 15.788L13.5633 14.804C13.8753 15.164 14.2113 15.432 14.5713 15.608C14.9393 15.776 15.3313 15.86 15.7473 15.86C16.2273 15.86 16.5953 15.752 16.8513 15.536C17.1073 15.32 17.2353 15.008 17.2353 14.6C17.2353 14.264 17.1393 14.012 16.9473 13.844C16.7553 13.668 16.4313 13.544 15.9753 13.472L15.0873 13.328C14.3113 13.192 13.7593 12.912 13.4313 12.488C13.1033 12.056 12.9393 11.548 12.9393 10.964C12.9393 10.164 13.1993 9.552 13.7193 9.128C14.2393 8.696 14.9593 8.48 15.8793 8.48C16.5353 8.48 17.0993 8.584 17.5713 8.792C18.0513 9 18.4353 9.284 18.7233 9.644L17.7993 10.628C17.5753 10.364 17.3073 10.156 16.9953 10.004C16.6833 9.844 16.3153 9.764 15.8913 9.764C14.9793 9.764 14.5233 10.14 14.5233 10.892C14.5233 11.212 14.6193 11.456 14.8113 11.624C15.0033 11.792 15.3313 11.916 15.7953 11.996L16.6713 12.152C17.3993 12.288 17.9393 12.556 18.2913 12.956C18.6433 13.356 18.8193 13.868 18.8193 14.492C18.8193 14.884 18.7513 15.244 18.6153 15.572C18.4793 15.892 18.2793 16.172 18.0153 16.412C17.7513 16.644 17.4233 16.824 17.0313 16.952C16.6473 17.08 16.2033 17.144 15.6993 17.144ZM22.8946 17.144C22.1746 17.144 21.5586 17.02 21.0466 16.772C20.5426 16.524 20.1306 16.196 19.8106 15.788L20.7586 14.804C21.0706 15.164 21.4066 15.432 21.7666 15.608C22.1346 15.776 22.5266 15.86 22.9426 15.86C23.4226 15.86 23.7906 15.752 24.0466 15.536C24.3026 15.32 24.4306 15.008 24.4306 14.6C24.4306 14.264 24.3346 14.012 24.1426 13.844C23.9506 13.668 23.6266 13.544 23.1706 13.472L22.2826 13.328C21.5066 13.192 20.9546 12.912 20.6266 12.488C20.2986 12.056 20.1346 11.548 20.1346 10.964C20.1346 10.164 20.3946 9.552 20.9146 9.128C21.4346 8.696 22.1546 8.48 23.0746 8.48C23.7306 8.48 24.2946 8.584 24.7666 8.792C25.2466 9 25.6306 9.284 25.9186 9.644L24.9946 10.628C24.7706 10.364 24.5026 10.156 24.1906 10.004C23.8786 9.844 23.5106 9.764 23.0866 9.764C22.1746 9.764 21.7186 10.14 21.7186 10.892C21.7186 11.212 21.8146 11.456 22.0066 11.624C22.1986 11.792 22.5266 11.916 22.9906 11.996L23.8666 12.152C24.5946 12.288 25.1346 12.556 25.4866 12.956C25.8386 13.356 26.0146 13.868 26.0146 14.492C26.0146 14.884 25.9466 15.244 25.8106 15.572C25.6746 15.892 25.4746 16.172 25.2106 16.412C24.9466 16.644 24.6186 16.824 24.2266 16.952C23.8426 17.08 23.3986 17.144 22.8946 17.144Z" fill="white"/>
</svg>
