<svg width="38" height="25" viewBox="0 0 38 25" fill="none" xmlns="http://www.w3.org/2000/svg">
<path d="M1 5.5C1 3.01472 3.01472 1 5.5 1H32.5C34.9853 1 37 3.01472 37 5.5V19.5C37 21.9853 34.9853 24 32.5 24H5.5C3.01472 24 1 21.9853 1 19.5V5.5Z" fill="#F96843"/>
<path d="M5.5 0.5C2.73858 0.5 0.5 2.73858 0.5 5.5V19.5C0.5 22.2614 2.73858 24.5 5.5 24.5H32.5C35.2614 24.5 37.5 22.2614 37.5 19.5V5.5C37.5 2.73858 35.2614 0.5 32.5 0.5H5.5Z" stroke="#F96843" stroke-opacity="0.3"/>
<path d="M9.824 13.4H7.376V17H5.804V8.624H7.376V12.104H9.824V8.624H11.396V17H9.824V13.4ZM16.5753 9.92V17H15.0153V9.92H12.4953V8.624H19.0953V9.92H16.5753ZM24.6466 13.124L24.7186 10.7H24.6106L22.9906 15.008L21.3706 10.7H21.2626L21.3346 13.124V17H19.9666V8.624H21.8386L23.0026 11.708H23.0866L24.2626 8.624H26.0146V17H24.6466V13.124ZM27.7859 17V8.624H29.3579V15.704H33.0659V17H27.7859Z" fill="white"/>
</svg>
