<svg width="65" height="25" viewBox="0 0 65 25" fill="none" xmlns="http://www.w3.org/2000/svg">
<path d="M1 5.5C1 3.01472 3.01472 1 5.5 1H59.5C61.9853 1 64 3.01472 64 5.5V19.5C64 21.9853 61.9853 24 59.5 24H5.5C3.01472 24 1 21.9853 1 19.5V5.5Z" fill="#60B247"/>
<path d="M5.5 0.5C2.73858 0.5 0.5 2.73858 0.5 5.5V19.5C0.5 22.2614 2.73858 24.5 5.5 24.5H59.5C62.2614 24.5 64.5 22.2614 64.5 19.5V5.5C64.5 2.73858 62.2614 0.5 59.5 0.5H5.5Z" stroke="#60B247" stroke-opacity="0.176471"/>
<path d="M9.58467 10.988H9.46467V17H8.12067V8.624H10.0527L12.2487 14.636H12.3687V8.624H13.7127V17H11.7807L9.58467 10.988ZM18.112 17.144C17.568 17.144 17.096 17.048 16.696 16.856C16.296 16.656 15.964 16.372 15.7 16.004C15.444 15.636 15.252 15.184 15.124 14.648C15.004 14.112 14.944 13.5 14.944 12.812C14.944 12.132 15.004 11.524 15.124 10.988C15.252 10.444 15.444 9.988 15.7 9.62C15.964 9.252 16.296 8.972 16.696 8.78C17.096 8.58 17.568 8.48 18.112 8.48C19.2 8.48 20 8.86 20.512 9.62C21.024 10.38 21.28 11.444 21.28 12.812C21.28 14.18 21.024 15.244 20.512 16.004C20 16.764 19.2 17.144 18.112 17.144ZM18.112 15.86C18.392 15.86 18.628 15.808 18.82 15.704C19.012 15.592 19.164 15.436 19.276 15.236C19.396 15.036 19.48 14.792 19.528 14.504C19.584 14.208 19.612 13.88 19.612 13.52V12.092C19.612 11.372 19.5 10.804 19.276 10.388C19.06 9.972 18.672 9.764 18.112 9.764C17.552 9.764 17.16 9.972 16.936 10.388C16.72 10.804 16.612 11.372 16.612 12.092V13.532C16.612 14.252 16.72 14.82 16.936 15.236C17.16 15.652 17.552 15.86 18.112 15.86ZM22.5833 8.624H25.1873C26.2753 8.624 27.0833 8.984 27.6113 9.704C28.1473 10.424 28.4153 11.46 28.4153 12.812C28.4153 14.172 28.1473 15.212 27.6113 15.932C27.0833 16.644 26.2753 17 25.1873 17H22.5833V8.624ZM25.0793 15.74C25.6553 15.74 26.0793 15.552 26.3513 15.176C26.6313 14.8 26.7713 14.252 26.7713 13.532V12.08C26.7713 11.368 26.6313 10.824 26.3513 10.448C26.0793 10.072 25.6553 9.884 25.0793 9.884H24.1313V15.74H25.0793ZM29.8986 17V8.624H35.1906V9.92H31.4706V12.104H35.0586V13.4H31.4706V15.704H35.1906V17H29.8986ZM39.6979 17.132C39.2819 17.132 38.9859 17.044 38.8099 16.868C38.6339 16.692 38.5459 16.476 38.5459 16.22V15.86C38.5459 15.604 38.6339 15.388 38.8099 15.212C38.9859 15.036 39.2819 14.948 39.6979 14.948C40.1139 14.948 40.4099 15.036 40.5859 15.212C40.7619 15.388 40.8499 15.604 40.8499 15.86V16.22C40.8499 16.476 40.7619 16.692 40.5859 16.868C40.4099 17.044 40.1139 17.132 39.6979 17.132ZM49.3172 8.624V14.708C49.3172 15.084 49.2532 15.424 49.1252 15.728C48.9972 16.024 48.8132 16.276 48.5732 16.484C48.3412 16.692 48.0572 16.856 47.7212 16.976C47.3932 17.088 47.0252 17.144 46.6172 17.144C45.8252 17.144 45.2012 16.944 44.7452 16.544C44.2972 16.144 44.0092 15.612 43.8812 14.948L45.3572 14.636C45.4292 14.988 45.5572 15.28 45.7412 15.512C45.9332 15.736 46.2252 15.848 46.6172 15.848C46.9772 15.848 47.2532 15.744 47.4452 15.536C47.6372 15.32 47.7332 14.984 47.7332 14.528V9.92H44.9012V8.624H49.3172ZM53.9925 17.144C53.2725 17.144 52.6565 17.02 52.1445 16.772C51.6405 16.524 51.2285 16.196 50.9085 15.788L51.8565 14.804C52.1685 15.164 52.5045 15.432 52.8645 15.608C53.2325 15.776 53.6245 15.86 54.0405 15.86C54.5205 15.86 54.8885 15.752 55.1445 15.536C55.4005 15.32 55.5285 15.008 55.5285 14.6C55.5285 14.264 55.4325 14.012 55.2405 13.844C55.0485 13.668 54.7245 13.544 54.2685 13.472L53.3805 13.328C52.6045 13.192 52.0525 12.912 51.7245 12.488C51.3965 12.056 51.2325 11.548 51.2325 10.964C51.2325 10.164 51.4925 9.552 52.0125 9.128C52.5325 8.696 53.2525 8.48 54.1725 8.48C54.8285 8.48 55.3925 8.584 55.8645 8.792C56.3445 9 56.7285 9.284 57.0165 9.644L56.0925 10.628C55.8685 10.364 55.6005 10.156 55.2885 10.004C54.9765 9.844 54.6085 9.764 54.1845 9.764C53.2725 9.764 52.8165 10.14 52.8165 10.892C52.8165 11.212 52.9125 11.456 53.1045 11.624C53.2965 11.792 53.6245 11.916 54.0885 11.996L54.9645 12.152C55.6925 12.288 56.2325 12.556 56.5845 12.956C56.9365 13.356 57.1125 13.868 57.1125 14.492C57.1125 14.884 57.0445 15.244 56.9085 15.572C56.7725 15.892 56.5725 16.172 56.3085 16.412C56.0445 16.644 55.7165 16.824 55.3245 16.952C54.9405 17.08 54.4965 17.144 53.9925 17.144Z" fill="white"/>
</svg>
