<svg width="46" height="25" viewBox="0 0 46 25" fill="none" xmlns="http://www.w3.org/2000/svg">
<path d="M1 5.5C1 3.01472 3.01472 1 5.5 1H40.5C42.9853 1 45 3.01472 45 5.5V19.5C45 21.9853 42.9853 24 40.5 24H5.5C3.01472 24 1 21.9853 1 19.5V5.5Z" fill="#0C9FCB"/>
<path d="M5.5 0.5C2.73858 0.5 0.5 2.73858 0.5 5.5V19.5C0.5 22.2614 2.73858 24.5 5.5 24.5H40.5C43.2614 24.5 45.5 22.2614 45.5 19.5V5.5C45.5 2.73858 43.2614 0.5 40.5 0.5H5.5Z" stroke="#0C9FCB" stroke-opacity="0.176471"/>
<path d="M7.54372 17H5.97172V8.624H9.15172C9.96772 8.624 10.5917 8.856 11.0237 9.32C11.4557 9.784 11.6717 10.416 11.6717 11.216C11.6717 11.832 11.5277 12.352 11.2397 12.776C10.9597 13.192 10.5557 13.456 10.0277 13.568L11.8157 17H10.0877L8.49172 13.748H7.54372V17ZM8.82772 12.524C9.25172 12.524 9.55572 12.44 9.73972 12.272C9.92372 12.096 10.0157 11.82 10.0157 11.444V10.988C10.0157 10.612 9.92372 10.34 9.73972 10.172C9.55572 9.996 9.25172 9.908 8.82772 9.908H7.54372V12.524H8.82772ZM13.203 17V8.624H18.495V9.92H14.775V12.104H18.363V13.4H14.775V15.704H18.495V17H13.203ZM24.7903 17L24.2023 14.876H21.7183L21.1423 17H19.5583L21.9103 8.624H24.0943L26.4583 17H24.7903ZM23.0143 10.172H22.9183L21.9943 13.592H23.9383L23.0143 10.172ZM30.4137 17.144C29.3177 17.144 28.5057 16.768 27.9777 16.016C27.4577 15.264 27.1977 14.196 27.1977 12.812C27.1977 11.436 27.4577 10.372 27.9777 9.62C28.5057 8.86 29.3177 8.48 30.4137 8.48C30.8297 8.48 31.1937 8.536 31.5057 8.648C31.8257 8.76 32.1017 8.916 32.3337 9.116C32.5657 9.308 32.7577 9.544 32.9097 9.824C33.0617 10.096 33.1817 10.396 33.2697 10.724L31.8297 11.132C31.7737 10.94 31.7097 10.76 31.6377 10.592C31.5657 10.424 31.4737 10.28 31.3617 10.16C31.2577 10.032 31.1257 9.936 30.9657 9.872C30.8057 9.8 30.6137 9.764 30.3897 9.764C29.8457 9.764 29.4537 9.972 29.2137 10.388C28.9817 10.804 28.8657 11.372 28.8657 12.092V13.532C28.8657 14.252 28.9817 14.82 29.2137 15.236C29.4537 15.652 29.8457 15.86 30.3897 15.86C30.6137 15.86 30.8057 15.828 30.9657 15.764C31.1257 15.692 31.2577 15.596 31.3617 15.476C31.4737 15.348 31.5657 15.2 31.6377 15.032C31.7097 14.864 31.7737 14.684 31.8297 14.492L33.2697 14.9C33.1817 15.228 33.0617 15.532 32.9097 15.812C32.7577 16.084 32.5657 16.32 32.3337 16.52C32.1017 16.712 31.8257 16.864 31.5057 16.976C31.1937 17.088 30.8297 17.144 30.4137 17.144ZM38.173 9.92V17H36.613V9.92H34.093V8.624H40.693V9.92H38.173Z" fill="white"/>
</svg>
